<?xml version="1.0" standalone="no"?>
<!DOCTYPE svg PUBLIC "-//W3C//DTD SVG 20010904//EN"
 "http://www.w3.org/TR/2001/REC-SVG-20010904/DTD/svg10.dtd">
<svg version="1.0" xmlns="http://www.w3.org/2000/svg"
 width="537.000000pt" height="537.000000pt" viewBox="0 0 537.000000 537.000000"
 preserveAspectRatio="xMidYMid meet">

<g transform="translate(0.000000,537.000000) scale(0.100000,-0.100000)"
fill="#000000" stroke="none">
<path d="M2465 5360 c-544 -49 -1035 -245 -1465 -587 -109 -86 -316 -293 -404
-403 -309 -388 -504 -844 -573 -1340 -23 -171 -23 -519 0 -690 83 -600 342
-1126 762 -1546 309 -309 650 -521 1055 -654 297 -98 522 -134 845 -134 324 0
552 36 845 133 405 135 745 345 1050 651 425 424 683 948 767 1550 23 171 23
519 0 690 -83 597 -341 1123 -757 1541 -191 192 -353 316 -582 448 -287 165
-635 281 -973 326 -146 19 -434 27 -570 15z m237 -832 l3 -63 180 -7 c442 -16
903 -132 1287 -324 58 -29 109 -57 112 -62 7 -12 10 -12 -1589 -87 -759 -36
-1463 -69 -1565 -74 -168 -9 -202 -8 -189 3 2 2 55 33 116 69 403 238 824 388
1260 449 l163 23 0 62 0 62 33 4 c17 2 67 5 109 5 l77 2 3 -62z m-1137 -918
c231 -22 515 -48 632 -60 116 -11 427 -40 690 -65 903 -85 985 -93 989 -98 2
-2 -43 -34 -101 -72 -164 -105 -279 -197 -420 -339 -125 -126 -187 -202 -342
-421 -131 -183 -339 -435 -418 -503 -148 -129 -330 -178 -570 -153 -303 30
-614 -2 -768 -81 -22 -11 -40 -18 -42 -16 -5 5 33 399 39 405 10 11 125 -21
178 -49 32 -17 80 -55 108 -84 28 -30 52 -54 54 -54 7 0 -6 110 -21 180 -38
182 -120 279 -249 297 l-46 6 6 64 c6 58 5 63 -13 63 -46 0 -223 54 -297 90
-95 46 -179 123 -215 196 -35 72 -34 166 4 222 29 44 80 76 139 87 31 6 315
-16 406 -31 32 -5 32 -5 32 38 -1 94 -80 194 -208 261 l-71 38 5 52 c8 75 9
77 46 71 18 -2 222 -22 453 -44z m2831 -385 c-2 -7 -37 -23 -78 -35 -136 -41
-240 -132 -255 -222 l-5 -34 194 -18 c224 -20 254 -27 307 -73 102 -87 90
-229 -29 -336 -95 -86 -214 -125 -407 -134 -68 -3 -123 -10 -123 -14 0 -47
-123 -1285 -131 -1318 -42 -175 -205 -315 -381 -327 -47 -4 -225 9 -493 35
-231 23 -658 64 -950 91 -291 28 -546 55 -565 62 -120 38 -217 122 -270 233
-30 62 -35 81 -38 172 -6 142 -1 148 53 74 53 -71 104 -112 200 -156 128 -60
188 -70 400 -69 164 0 201 3 270 22 106 29 245 100 325 165 120 98 168 167
299 430 185 374 336 589 620 882 321 332 660 558 972 648 l84 24 3 -45 c2 -24
1 -50 -2 -57z m-2325 -1404 c169 -35 269 -85 295 -146 24 -59 -8 -104 -109
-150 -221 -102 -712 -93 -928 16 -102 51 -137 122 -85 174 54 53 200 106 347
125 115 14 368 4 480 -19z"/>
<path d="M949 3002 c27 -50 146 -115 271 -148 l85 -22 7 41 c3 23 7 58 7 78
l1 35 -142 13 c-79 7 -165 15 -192 18 -47 6 -48 5 -37 -15z"/>
<path d="M2265 3011 c-154 -38 -332 -259 -414 -516 -30 -95 -56 -204 -49 -211
3 -2 18 16 35 40 67 95 220 186 438 261 61 21 129 51 152 68 105 75 110 226
10 314 -52 46 -107 59 -172 44z"/>
<path d="M4035 2717 c-2 -7 -6 -42 -9 -79 l-6 -67 67 5 c101 8 162 20 223 43
60 23 109 56 98 66 -3 4 -73 13 -155 21 -81 7 -163 16 -181 18 -21 3 -34 0
-37 -7z"/>
</g>
</svg>
